<?xml version="1.0" standalone="no"?><!DOCTYPE svg PUBLIC "-//W3C//DTD SVG 1.1//EN" "http://www.w3.org/Graphics/SVG/1.1/DTD/svg11.dtd"><svg t="1695797777341" class="icon" viewBox="0 0 1024 1024" version="1.1" xmlns="http://www.w3.org/2000/svg" p-id="10884" xmlns:xlink="http://www.w3.org/1999/xlink" width="128" height="128"><path d="M707.925333 566.784c-1.536-6.826667-3.413333-13.312-5.802666-19.797333a157.5424 157.5424 0 0 0-35.669334-57.514667 161.553067 161.553067 0 0 0-95.744-47.957333c-6.826667-18.090667-16.213333-34.645333-27.818666-49.493334-11.434667-15.36-25.258667-28.842667-40.96-39.936-32.768-23.893333-73.045333-37.717333-116.224-37.717333-83.626667 0-156.672 51.541333-185.344 128.170667-76.629333 12.970667-135.338667 79.872-135.338667 159.573333 0 89.429333 72.704 161.962667 162.133333 161.962667h322.901334c89.258667 0 161.962667-72.533333 161.962666-161.962667v-3.925333c-0.341333-11.264-1.706667-22.016-4.096-31.402667z m-157.866666 129.024H227.157333c-51.712 0-93.866667-41.984-93.866666-93.696 0-51.029333 41.813333-93.184 93.184-93.696l26.624-0.170667 6.314666-25.941333a129.314133 129.314133 0 0 1 126.293334-99.669333c60.416 0 112.298667 41.130667 126.464 100.010666l8.192 28.842667 29.696-3.072c25.6 0 49.493333 10.24 67.413333 28.672 11.946667 12.288 20.138667 27.477333 24.064 45.056 1.536 6.144 2.218667 12.8 2.218667 19.968 0 51.712-41.984 93.696-93.696 93.696zM933.376 476.330667c0 67.242667-54.613333 121.856-121.856 121.856h-51.029333c-0.341333-11.264-1.706667-22.016-4.096-31.402667-1.536-6.826667-3.413333-13.312-5.802667-19.797333h60.928c39.082667 0 70.656-31.744 70.656-70.656 0-38.912-31.573333-70.485333-70.656-70.485334l-22.869333 3.242667-5.461334-22.698667a97.655467 97.655467 0 0 0-95.232-75.264c-45.397333 0-84.650667 30.890667-95.232 75.093334l-1.365333 5.802666c-11.434667-15.36-25.258667-28.842667-40.96-39.936 22.357333-55.296 76.117333-92.16 137.557333-92.16 62.634667 0 117.248 38.570667 139.264 95.744 59.904 7.68 106.154667 58.88 106.154667 120.661334z" fill="#ffffff" p-id="10885"></path></svg>