<?xml version="1.0" standalone="no"?><!DOCTYPE svg PUBLIC "-//W3C//DTD SVG 1.1//EN" "http://www.w3.org/Graphics/SVG/1.1/DTD/svg11.dtd"><svg t="1695798219367" class="icon" viewBox="0 0 1024 1024" version="1.1" xmlns="http://www.w3.org/2000/svg" p-id="35805" xmlns:xlink="http://www.w3.org/1999/xlink" width="128" height="128"><path d="M730.282667 649.898667h-38.229334v-68.266667h38.229334c57.514667 0 104.448-46.762667 104.448-104.448s-46.762667-104.448-104.448-104.448l-31.744 1.194667-6.485334-27.136a143.3088 143.3088 0 0 0-139.776-110.421334 143.36 143.36 0 0 0-139.776 110.250667l-6.314666 25.941333-26.624 0.170667c-57.173333 0.512-103.594667 47.274667-103.594667 104.277333 0 57.514667 46.762667 104.448 104.448 104.448h37.034667v68.266667h-37.034667c-95.232 0-172.714667-77.482667-172.714667-172.714667 0-85.674667 63.317333-157.354667 145.578667-170.496 30.378667-82.602667 108.885333-138.581333 198.826667-138.581333 89.6 0 167.765333 55.466667 198.485333 137.557333 85.674667 10.069333 152.234667 83.114667 152.234667 171.52 0.170667 95.402667-77.312 172.885333-172.544 172.885334z" fill="#ffffff" p-id="35806"></path><path d="M603.136 445.610667l-116.224 130.218666 25.770667 76.629334-32.256 133.632 129.365333-135.509334-23.722667-85.504z" fill="#ffffff" p-id="35807"></path><path d="M599.893333 816.298667c-4.437333 0-8.704-1.706667-12.117333-4.949334a16.9984 16.9984 0 0 1 0-24.064l52.906667-52.906666a16.9984 16.9984 0 1 1 24.064 24.064l-52.906667 52.906666a16.384 16.384 0 0 1-11.946667 4.949334zM488.96 926.037333c-4.437333 0-8.704-1.706667-12.117333-4.949333a16.9984 16.9984 0 0 1 0-24.064l52.906666-52.906667a16.9984 16.9984 0 1 1 24.064 24.064l-52.906666 52.906667c-3.242667 3.242667-7.68 4.949333-11.946667 4.949333zM352.085333 820.224c-4.437333 0-8.704-1.706667-12.117333-4.949333a16.9984 16.9984 0 0 1 0-24.064l52.906667-52.906667a16.9984 16.9984 0 1 1 24.064 24.064l-52.906667 52.906667a16.384 16.384 0 0 1-11.946667 4.949333z" fill="#ffffff" p-id="35808"></path></svg>